<?xml version="1.0" encoding="UTF-8" standalone="no"?>
<!-- Created with Inkscape (http://www.inkscape.org/) -->

<svg
   xmlns:osb="http://www.openswatchbook.org/uri/2009/osb"
   xmlns:dc="http://purl.org/dc/elements/1.1/"
   xmlns:cc="http://creativecommons.org/ns#"
   xmlns:rdf="http://www.w3.org/1999/02/22-rdf-syntax-ns#"
   xmlns:svg="http://www.w3.org/2000/svg"
   xmlns="http://www.w3.org/2000/svg"
   xmlns:sodipodi="http://sodipodi.sourceforge.net/DTD/sodipodi-0.dtd"
   xmlns:inkscape="http://www.inkscape.org/namespaces/inkscape"
   id="svg2"
   version="1.1"
   inkscape:version="0.48.4 r9939"
   width="771"
   height="1410"
   sodipodi:docname="flower allergene.svg">
  <metadata
     id="metadata8">
    <rdf:RDF>
      <cc:Work
         rdf:about="">
        <dc:format>image/svg+xml</dc:format>
        <dc:type
           rdf:resource="http://purl.org/dc/dcmitype/StillImage" />
        <dc:title />
      </cc:Work>
    </rdf:RDF>
  </metadata>
  <defs
     id="defs6">
    <linearGradient
       id="linearGradient3799"
       osb:paint="solid">
      <stop
         style="stop-color:#ffdaed;stop-opacity:1;"
         offset="0"
         id="stop3801" />
    </linearGradient>
  </defs>
  <sodipodi:namedview
     pagecolor="#ffffff"
     bordercolor="#666666"
     borderopacity="1"
     objecttolerance="10"
     gridtolerance="10"
     guidetolerance="10"
     inkscape:pageopacity="0"
     inkscape:pageshadow="2"
     inkscape:window-width="1366"
     inkscape:window-height="713"
     id="namedview4"
     showgrid="false"
     fit-margin-top="0"
     fit-margin-left="0"
     fit-margin-right="0"
     fit-margin-bottom="0"
     inkscape:zoom="0.5"
     inkscape:cx="174.34917"
     inkscape:cy="941.16012"
     inkscape:window-x="0"
     inkscape:window-y="0"
     inkscape:window-maximized="1"
     inkscape:current-layer="layer2" />
  <g
     inkscape:groupmode="layer"
     id="layer1"
     inkscape:label="Calque 0"
     style="display:inline"
     sodipodi:insensitive="true">
    <path
       style="fill:#5bbe5b;fill-opacity:1;stroke:#122512;stroke-width:3;stroke-linecap:butt;stroke-linejoin:miter;stroke-miterlimit:4;stroke-opacity:1;stroke-dasharray:none"
       d="m 475.22941,1269.4037 c 7.96478,-20.113 14.62518,-40.9583 20.46146,-61.887 8.46166,-30.3433 16.80918,-60.9149 21.04725,-92.1295 6.71752,-49.4766 8.57792,-99.7397 6.78246,-149.63786 -2.47623,-68.81783 -13.09409,-137.20218 -24.16249,-205.1692 -12.06986,-74.11662 -31.02794,-146.94725 -45.99975,-220.53257 -4.93774,-24.2686 -9.27445,-48.65984 -14.45524,-72.87771 -4.98146,-23.28608 -15.98635,-69.62718 -15.98635,-69.62718 l 33.07693,-15.23039 c 0,0 22.03477,104.52493 34.03854,156.56643 9.51277,41.24193 20.54426,82.1232 30.09713,123.35586 11.75439,50.73496 25.18817,101.19208 33.48836,152.60519 10.61947,65.77922 19.34561,132.19497 20.77126,198.81063 1.18434,55.34 -1.82158,111.0272 -10.17368,165.7462 -4.63328,30.355 -14.12926,59.7743 -22.04297,89.4436 -2.74366,10.2863 -8.81676,30.6966 -8.81676,30.6966 l -72.80074,-0.5995 c 0,0 10.38368,-18.698 14.67459,-29.5336 z"
       id="path2988"
       inkscape:connector-curvature="0"
       sodipodi:nodetypes="saaaaaaccaaaaaaccs" />
  </g>
  <g
     inkscape:groupmode="layer"
     id="layer2"
     inkscape:label="Calque 1"
     style="display:inline">
    <path
       style="fill:#ebcde0;fill-opacity:1;fill-rule:nonzero;stroke:#baa0b3;stroke-width:3;stroke-linecap:butt;stroke-linejoin:miter;stroke-miterlimit:4;stroke-opacity:1;stroke-dasharray:none"
       d="m 299.44515,332.94165 c 0,0 -18.1725,23.54723 -22.06751,62.55566 -0.52581,5.26603 -1.90492,8.30019 -2.41335,16.25269 -1.80637,28.25378 8.36274,52.33376 16.01265,55.26077 7.64991,2.92701 45.39003,-4.62364 57.79767,-37.84132 12.25683,-32.81393 7.05258,-74.15881 6.96767,-78.68891 -0.0698,-3.72685 -0.15611,-29.03996 -0.15611,-29.03996 0,0 3.7611,8.64182 0.093,70.81131 -0.35662,28.26235 -1.43496,34.68548 1.66572,48.78686 6.70986,30.51534 15.14977,53.4536 41.24373,56.27081 21.08155,2.27605 36.14615,-13.55416 45.26007,-49.7979 2.5158,-10.00471 0.50013,-42.92368 -0.3571,-55.79556 -2.61232,-39.22592 -19.98207,-68.06896 -19.98207,-68.06896 m 19.9799,71.6588 c 0.95954,13.22651 4.52915,62.78628 18.527,76.73623 10.49149,10.45559 30.9759,19.86109 43.73218,14.73981 11.21911,-4.88012 21.06664,-15.70941 26.4122,-27.60511 12.15993,-27.05997 -13.72706,-65.27309 -16.69438,-94.31046 -2.96732,-29.03738 -13.77686,-54.25962 -13.77686,-54.25962 0,0 1.96674,4.6415 3.48202,9.07491 1.02899,3.01061 2.63941,8.27028 3.29397,10.39319 0.28371,0.92015 2.02447,7.25534 3.22124,12.94695 1.97986,9.41588 4.1945,22.2187 4.53159,28.65683 0.0975,1.86221 0.38082,3.42283 0.33442,4.58065 3.64993,12.69711 2.43083,8.57599 3.85023,12.31928 6.45055,17.01163 14.11998,42.90871 26.13269,51.85762 25.25157,18.81124 45.4086,9.57212 53.87308,4.58865 8.46448,-4.98347 11.24936,-42.74362 -0.59056,-78.71301 -11.83992,-35.96939 -45.18419,-64.63961 -45.18419,-64.63961 0,0 55.20988,50.38379 48.96681,88.45771 1.69717,1.47656 3.06254,2.44217 4.83644,3.55997 30.94494,19.49955 65.65645,-3.69606 65.65645,-3.69606 0,0 0.23322,-55.59433 -21.1739,-78.06121 -21.40711,-22.46687 -34.86884,-38.62936 -65.81378,-43.7162 -30.94494,-5.08684 -272.99372,-3.17928 -272.99372,-3.17928 l -36.54857,45.49853 c 0,0 -57.84318,21.65855 -65.03705,55.22997 -7.19388,33.57143 5.949,45.46849 10.14543,53.26186 4.19643,7.79337 37.43148,8.63349 55.41617,-29.73385"
       id="path3797"
       inkscape:connector-curvature="0"
       sodipodi:nodetypes="csszssccssssccscsscsssscsszsccscssccssc" />
  </g>
  <g
     inkscape:groupmode="layer"
     id="layer4"
     inkscape:label="Calque 1.5"
     style="display:inline"
     sodipodi:insensitive="true">
    <path
       style="fill:#ffe000;fill-opacity:1;fill-rule:nonzero;stroke:none"
       d="m 560.86748,198.41375 c 0,54.54888 -40.32799,114.03 -113.60608,114.03 -17.75897,0 -72.04996,-5.49395 -87.53107,-10.206 -48.39793,-14.73109 -61.72631,-64.12006 -61.72631,-105.449 0,-17.38086 8.57435,-31.59364 19.16339,-45.78098 8.7027,-11.65998 24.72321,-28.22971 38.76589,-36.38347 22.49583,-13.062 34.26231,-18.300638 65.00267,-18.300638 33.39041,0 67.96091,8.611538 91.46033,23.490488 26.58752,16.83422 48.47118,48.90685 48.47118,78.5996 z"
       id="path3812"
       inkscape:connector-curvature="0"
       sodipodi:nodetypes="sssssssss" />
  </g>
  <g
     inkscape:groupmode="layer"
     id="layer3"
     inkscape:label="Calque 2"
     style="display:inline"
     sodipodi:insensitive="true">
    <path
       style="fill:#ffe4ef;fill-opacity:1;stroke:#dcc0d7;stroke-width:3;stroke-linecap:butt;stroke-linejoin:miter;stroke-miterlimit:4;stroke-opacity:1;stroke-dasharray:none"
       d="m 330.31888,275.16581 c 0,0 -14.39167,8.98456 -20.63424,27.10158 -2.14905,6.23692 -4.68933,10.60723 -5.57428,27.85176 -0.88496,17.24453 -0.12857,42.0045 6.53674,44.99139 6.66531,2.98689 37.6098,-3.46666 53.63039,-29.94513 15.26052,-25.22224 15.95704,-43.61056 15.95704,-43.61056 0,0 -16.38464,44.19506 -2.71195,67.93331 13.08124,22.71139 26.41588,30.2819 26.41588,30.2819 0,0 30.02961,-11.93996 38.66335,-29.97607 5.33832,-11.1519 6.67025,-67.7379 6.67025,-67.7379 0,0 -3.2361,52.05858 8.68412,71.31904 13.98077,22.58985 37.8852,23.68787 35.41069,20.38853 0,0 12.68587,-1.03314 17.56076,-27.951 3.80474,-31.67531 -10.76721,-80.31628 -10.67412,-80.22319 l 7.13911,28.3825 c 2.2268,10.78722 0.49488,5.97521 5.16129,19.95827 6.47353,13.42457 40.73647,36.21634 53.8107,33.00965 15.29775,-3.75204 14.26598,-47.10799 4.56664,-67.70576 -10.84973,-23.04076 -18.88597,-36.55978 -18.88597,-36.55978 0,0 16.10306,27.59573 26.25286,41.42402 12.54775,12.47943 42.94494,18.01788 42.94494,18.01788 0,0 8.31447,-11.27856 7.18015,-34.46908 -1.88368,-19.44372 -9.5909,-31.43923 -36.72071,-49.87902 -27.12981,-18.43979 -31.89873,-18.12187 -31.89873,-18.12187 0,0 -14.9964,34.64546 -49.45496,51.42117 -17.52652,12.06501 -57.96166,24.78346 -76.55029,25.27726 -25.48189,0.67692 -49.34161,-0.46766 -69.35548,-11.23112 -36.51846,-19.63963 -66.19689,-58.80619 -66.19689,-58.80619 0,0 -38.66709,33.27168 -44.66199,61.4477 -5.99489,28.17602 3,38.7602 3,38.7602 0,0 8.1655,20.13967 40.53795,-10.43431 4.83251,-4.56404 9.0699,-10.01519 12.61278,-13.70471"
       id="path3810"
       inkscape:connector-curvature="0"
       sodipodi:nodetypes="cszzscssssssccccssccscsccsscsscs" />
  </g>
  <g
     inkscape:groupmode="layer"
     id="layer5"
     inkscape:label="Calque 3"
     style="display:inline"
     sodipodi:insensitive="true">
    <path
       style="fill:#ff9b00;fill-opacity:1;stroke:#cb5d21;stroke-opacity:1"
       d="m 295.38033,221.6827 c 0,0 8.98224,-7.93781 9.83005,0.11635 0.8478,8.05416 -0.63586,8.69002 -0.63586,8.69002 0,0 9.11392,-4.02709 12.08125,-2.11952 2.96732,1.90756 0.63585,13.77686 0.63585,13.77686 0,0 6.1466,-10.17368 9.96173,-4.87489 3.81513,5.29879 -1.48366,12.7171 -1.48366,12.7171 0,0 6.5705,-7.41831 9.53782,-3.17928 2.96732,4.23904 1.73079,13.15724 1.73079,13.15724 l -0.68817,4.09743 c 0,0 3.19732,-5.17342 6.58854,-4.11367 3.39123,1.05976 4.98042,13.12297 4.98042,13.12297 0,0 8.32203,-4.11367 14.46863,-3.68976 5.38197,1.29479 8.93374,6.61504 11.91889,15.78904 0,0 7.20636,-10.38563 12.7171,-7.84221 5.51075,2.54342 10.38563,13.98881 10.38563,13.98881 0,0 6.1466,-8.47807 15.47248,-7.20636 9.32587,1.27171 12.92905,9.32588 12.92905,9.32588 0,0 10.17368,-9.74978 17.16808,-9.32588 6.9944,0.42391 12.2932,6.35855 12.2932,6.35855 0,0 1.48366,-9.96173 8.47806,-12.08124 6.99441,-2.11952 19.07565,4.87489 19.07565,4.87489 0,0 -5.51074,-10.38563 4.23903,-14.20076 9.74978,-3.81513 19.49955,1.48366 19.49955,1.48366 0,0 -4.02708,-11.65734 5.2988,-12.7171 9.32587,-1.05976 12.56648,2.76349 12.56648,2.76349 0,0 -5.21688,-12.66768 3.04924,-15.2111 3.81259,-1.17311 7.95045,2.96055 8.84601,4.77738 0.0462,0.0937 -2.47988,-7.86857 1.38768,-11.43878 2.58225,-2.38373 9.78773,-1.02419 9.70655,-1.25088 -1.29955,-3.62918 -1.9662,-8.42843 -0.25361,-11.03568 1.41776,-2.1584 10.28121,-3.66005 9.63945,-3.91081 -1.21555,-0.47496 -3.29129,-5.46868 -1.92933,-7.56761 1.06213,-1.63688 2.80395,-3.18048 7.23772,-1.09817 0.70307,0.3302 -0.63079,4.68901 -0.63079,4.68901 0,0 -0.44987,1.12091 -1.09384,2.79596 -2.33509,6.07397 -8.79898,20.86958 -17.61907,28.42365 -23.67727,20.27868 -63.78804,46.37534 -87.76952,49.46484 -35.85788,4.61952 -52.7594,5.27148 -87.89995,-7.06513 -33.83014,-11.87657 -71.21576,-57.22695 -72.91137,-62.73769 -1.69561,-5.51075 1.19144,-7.74661 1.19144,-7.74661 z"
       id="path3835"
       inkscape:connector-curvature="0"
       sodipodi:nodetypes="cscscscsccscccscscscscscscsssssssscsssssc" />
  </g>
  <g
     inkscape:groupmode="layer"
     id="layer6"
     inkscape:label="Calque spe"
     sodipodi:insensitive="true"
     style="display:none">
    <path
       style="fill:none;stroke:#000000;stroke-width:1px;stroke-linecap:butt;stroke-linejoin:miter;stroke-opacity:1"
       d="m 292,221 c 0,0 27,87 133,83 106,-4 143,-94 143,-94 l -5,-1"
       id="path3762"
       inkscape:connector-curvature="0" />
    <path
       style="fill:none;stroke:#000000;stroke-width:1px;stroke-linecap:butt;stroke-linejoin:miter;stroke-opacity:1"
       d="m 236.94977,296.75571 c 0,0 40.85977,111.23986 201.27222,106.1254 C 598.63443,397.76663 654.62746,282.6909 654.62746,282.6909 l -7.56662,-1.27862"
       id="path3762-5"
       inkscape:connector-curvature="0" />
    <path
       style="fill:none;stroke:#000000;stroke-width:1px;stroke-linecap:butt;stroke-linejoin:miter;stroke-opacity:1"
       d="m 167.34195,329.31363 c 0,0 53.86438,177.8448 265.33199,169.66806 211.4676,-8.17678 285.28177,-192.15419 285.28177,-192.15419 l -9.97489,-2.04419"
       id="path3762-5-8"
       inkscape:connector-curvature="0" />
  </g>
</svg>
